<svg xmlns="http://www.w3.org/2000/svg" width="15" height="11" viewBox="0 0 15 11">
  <defs>
  </defs>
  <path d="M535.931,2034.01a0.673,0.673,0,0,0,.425-0.16l5.434-4.92c0.007,0,.013-0.01.019-0.01l0.031-.03v-0.01h0a0.567,0.567,0,0,0,.138-0.47,0.6,0.6,0,0,0-.155-0.31l-0.033-.03-5.435-4.91a0.65,0.65,0,0,0-.874.02,0.578,0.578,0,0,0,.024.84l4.311,3.89H527.631a0.608,0.608,0,0,0-.617.59,0.6,0.6,0,0,0,.617.59h12.186l-4.311,3.9a0.566,0.566,0,0,0-.024.83A0.608,0.608,0,0,0,535.931,2034.01Z" transform="translate(-527 -2023)"/>
</svg>
