<svg xmlns="http://www.w3.org/2000/svg" xmlns:xlink="http://www.w3.org/1999/xlink" viewBox="0 0 32 32">
  <path d="M4 4L4 28L28 28L28 4 Z M 6 6L26 6L26 26L23.9375 26C23.59375 23.296875 21.882813 21.011719 19.53125 19.84375C21.023438 18.75 22 16.984375 22 15C22 11.699219 19.300781 9 16 9C12.699219 9 10 11.699219 10 15C10 16.984375 10.976563 18.75 12.46875 19.84375C10.117188 21.011719 8.40625 23.296875 8.0625 26L6 26 Z M 16 11C18.222656 11 20 12.777344 20 15C20 17.222656 18.222656 19 16 19C13.777344 19 12 17.222656 12 15C12 12.777344 13.777344 11 16 11 Z M 16 21C18.984375 21 21.433594 23.152344 21.90625 26L10.09375 26C10.566406 23.152344 13.015625 21 16 21Z" />
</svg>