<svg width="25" height="24" viewBox="0 0 25 24" fill="none" xmlns="http://www.w3.org/2000/svg">
<path d="M3.0054 8L10.9096 13.26C11.2389 13.4793 11.6258 13.5963 12.0216 13.5963C12.4175 13.5963 12.8044 13.4793 13.1336 13.26L21.0379 8M5.00901 19H19.0343C19.5657 19 20.0753 18.7893 20.451 18.4142C20.8268 18.0391 21.0379 17.5304 21.0379 17V7C21.0379 6.46957 20.8268 5.96086 20.451 5.58579C20.0753 5.21071 19.5657 5 19.0343 5H5.00901C4.47762 5 3.968 5.21071 3.59225 5.58579C3.2165 5.96086 3.0054 6.46957 3.0054 7V17C3.0054 17.5304 3.2165 18.0391 3.59225 18.4142C3.968 18.7893 4.47762 19 5.00901 19Z" stroke="#302B27" stroke-width="2" stroke-linecap="round" stroke-linejoin="round"/>
</svg>
