<?xml version="1.0" encoding="utf-8"?><!DOCTYPE svg PUBLIC "-//W3C//DTD SVG 1.1//EN" "http://www.w3.org/Graphics/SVG/1.1/DTD/svg11.dtd"><svg viewBox="0 0 965.199 965.199" xmlns="http://www.w3.org/2000/svg" xmlns:xlink="http://www.w3.org/1999/xlink"><style>:root>svg{display:none}:root>svg:target{display:block}</style><svg viewBox="0 0 5.188 9.531" id="arrow-category" xmlns="http://www.w3.org/2000/svg"><path fill="#243f4d" fill-rule="evenodd" d="M.472 9.538a.463.463 0 00.331-.14l4.221-4.265.013-.013a.522.522 0 00.095-.144.541.541 0 00.045-.217.528.528 0 00-.044-.211.525.525 0 00-.1-.147.043.043 0 00-.011-.012L.801.124a.461.461 0 00-.68.019.539.539 0 00.018.724l3.857 3.9-3.857 3.9a.539.539 0 00-.018.724.467.467 0 00.351.147z"/></svg><svg viewBox="0 0 48 48" fill="#516278" id="arrow-reply" xmlns="http://www.w3.org/2000/svg"><path d="M26.484 8.984a1.5 1.5 0 00-1.045 2.577L36.88 23H7.5a1.5 1.5 0 100 3h29.379l-11.44 11.44a1.5 1.5 0 102.122 2.12l14-14a1.5 1.5 0 000-2.12l-14-14a1.5 1.5 0 00-1.077-.456z"/></svg><svg viewBox="0 0 15 11" id="arrow-right" xmlns="http://www.w3.org/2000/svg"><path d="M8.931 11.01a.673.673 0 00.425-.16l5.434-4.92c.007 0 .013-.01.019-.01l.031-.03v-.01a.567.567 0 00.138-.47.6.6 0 00-.155-.31l-.033-.03L9.355.16a.65.65 0 00-.874.02.578.578 0 00.024.84l4.311 3.89H.631a.608.608 0 00-.617.59.6.6 0 00.617.59h12.186l-4.311 3.9a.566.566 0 00-.024.83.608.608 0 00.449.19z"/></svg><svg fill="none" viewBox="0 0 31 17" id="arrow-up" xmlns="http://www.w3.org/2000/svg"><path d="M.042 13.541a2.209 2.209 0 01.817-1.722l13.25-10.666a2.208 2.208 0 012.804 0l13.25 11.041a2.211 2.211 0 11-2.826 3.401L15.5 5.724l-11.837 9.54A2.21 2.21 0 01.042 13.54z" fill="#fff"/></svg><svg viewBox="0 0 477.867 477.867" id="calendar" xmlns="http://www.w3.org/2000/svg"><path d="M119.467 0C110.041 0 102.4 7.641 102.4 17.067V51.2h34.133V17.067C136.533 7.641 128.892 0 119.467 0zM358.4 0c-9.426 0-17.067 7.641-17.067 17.067V51.2h34.133V17.067C375.467 7.641 367.826 0 358.4 0zM426.667 51.2h-51.2v68.267c0 9.426-7.641 17.067-17.067 17.067s-17.067-7.641-17.067-17.067V51.2h-204.8v68.267c0 9.426-7.641 17.067-17.067 17.067s-17.067-7.641-17.067-17.067V51.2H51.2C22.923 51.2 0 74.123 0 102.4v324.267c0 28.277 22.923 51.2 51.2 51.2h375.467c28.277 0 51.2-22.923 51.2-51.2V102.4c0-28.277-22.923-51.2-51.2-51.2zm17.066 375.467c0 9.426-7.641 17.067-17.067 17.067H51.2c-9.426 0-17.067-7.641-17.067-17.067V204.8h409.6v221.867z"/><path d="M136.533 238.933H102.4c-9.426 0-17.067 7.641-17.067 17.067s7.641 17.067 17.067 17.067h34.133c9.426 0 17.067-7.641 17.067-17.067s-7.641-17.067-17.067-17.067zM256 238.933h-34.133c-9.426 0-17.067 7.641-17.067 17.067s7.641 17.067 17.067 17.067H256c9.426 0 17.067-7.641 17.067-17.067s-7.641-17.067-17.067-17.067zM375.467 238.933h-34.133c-9.426 0-17.067 7.641-17.067 17.067s7.641 17.067 17.067 17.067h34.133c9.426 0 17.067-7.641 17.067-17.067s-7.642-17.067-17.067-17.067zM136.533 307.2H102.4c-9.426 0-17.067 7.641-17.067 17.067s7.641 17.067 17.067 17.067h34.133c9.426 0 17.067-7.641 17.067-17.067s-7.641-17.067-17.067-17.067zM256 307.2h-34.133c-9.426 0-17.067 7.641-17.067 17.067s7.641 17.067 17.067 17.067H256c9.426 0 17.067-7.641 17.067-17.067S265.426 307.2 256 307.2zM375.467 307.2h-34.133c-9.426 0-17.067 7.641-17.067 17.067s7.641 17.067 17.067 17.067h34.133c9.426 0 17.067-7.641 17.067-17.067-.001-9.426-7.642-17.067-17.067-17.067zM136.533 375.467H102.4c-9.426 0-17.067 7.641-17.067 17.067S92.974 409.6 102.4 409.6h34.133c9.426 0 17.067-7.641 17.067-17.067s-7.641-17.066-17.067-17.066zM256 375.467h-34.133c-9.426 0-17.067 7.641-17.067 17.067s7.641 17.067 17.067 17.067H256c9.426 0 17.067-7.641 17.067-17.067s-7.641-17.067-17.067-17.067zM375.467 375.467h-34.133c-9.426 0-17.067 7.641-17.067 17.067s7.641 17.067 17.067 17.067h34.133c9.426 0 17.067-7.641 17.067-17.067s-7.642-17.067-17.067-17.067z"/></svg><svg viewBox="0 0 19 17" id="cart-icon" xmlns="http://www.w3.org/2000/svg"><path fill-rule="evenodd" fill="#243F4D" d="M18.936 3.932l-2.123 7.956a.594.594 0 01-.573.44H5.885a.044.044 0 00-.023 0c-1.329.001-2.205.493-2.68 1.509a.593.593 0 01-1.073-.502c.579-1.239 1.627-1.973 3.054-2.151L4.108 5.793a.592.592 0 111.163-.227l1.091 5.578h9.423l1.807-6.771H4.29A4.354 4.354 0 01.007.68.591.591 0 111.178.505a3.165 3.165 0 003.115 2.682h14.07a.593.593 0 01.573.745zM5.527 12.831h.006A2.065 2.065 0 017.602 14.9a2.066 2.066 0 01-1.277 1.917 2.067 2.067 0 01-2.26-.446 2.066 2.066 0 01-.453-2.26 2.068 2.068 0 011.915-1.28zm-.626 2.702a.89.89 0 10.632-1.518h-.004a.887.887 0 00-.628 1.518zm9.017-2.702c.546-.04 1.08.218 1.468.603.392.393.607.912.607 1.466a2.065 2.065 0 01-1.274 1.917 2.064 2.064 0 01-2.262-.446 2.065 2.065 0 01-.452-2.26 2.064 2.064 0 011.913-1.28zm-.625 2.702a.889.889 0 10.631-1.518h-.001c-.331.032-.685.215-.823.548a.885.885 0 00.193.97z"/></svg><svg viewBox="0 0 22 20" id="cart-icon-prod" xmlns="http://www.w3.org/2000/svg"><defs><style>.gcls-1{fill:#fff;fill-rule:evenodd}</style></defs><path id="gForma_1" data-name="Forma 1" class="gcls-1" d="M800.814 1564.63h2.333l3.323 12.04a.812.812 0 00.787.59h10.214a.821.821 0 00.746-.48l3.717-8.56a.836.836 0 00-.068-.78.813.813 0 00-.678-.37H809.9a.82.82 0 000 1.64h10.04l-3.011 6.92h-9.062l-3.323-12.03a.808.808 0 00-.787-.6h-2.943a.815.815 0 000 1.63zm5.67 18.37a1.85 1.85 0 10-1.845-1.85 1.85 1.85 0 001.845 1.85zm11.53 0h.135a1.907 1.907 0 10-.135 0z" transform="translate(-800 -1563)"/></svg><svg viewBox="0 0 426.667 426.667" id="controls" xmlns="http://www.w3.org/2000/svg"><circle cx="42.667" cy="213.333" r="42.667"/><circle cx="213.333" cy="213.333" r="42.667"/><circle cx="384" cy="213.333" r="42.667"/></svg><svg viewBox="0 0 965.199 965.199" id="grid" xmlns="http://www.w3.org/2000/svg"><path d="M263.85 30c0-16.6-13.4-30-30-30h-202c-16.6 0-30 13.4-30 30v202.1c0 16.6 13.4 30 30 30h202.1c16.6 0 30-13.4 30-30V30h-.1zM613.55 30c0-16.6-13.4-30-30-30h-202c-16.6 0-30 13.4-30 30v202.1c0 16.6 13.4 30 30 30h202c16.6 0 30-13.4 30-30V30zM963.25 30c0-16.6-13.4-30-30-30h-202c-16.601 0-30 13.4-30 30v202.1c0 16.6 13.399 30 30 30h202.1c16.601 0 30-13.4 30-30V30h-.1zM263.85 381.6c0-16.6-13.4-30-30-30h-202c-16.6 0-30 13.4-30 30v202c0 16.6 13.4 30 30 30h202.1c16.6 0 30-13.4 30-30v-202h-.1zM613.55 381.6c0-16.6-13.4-30-30-30h-202c-16.6 0-30 13.4-30 30v202c0 16.6 13.4 30 30 30h202c16.6 0 30-13.4 30-30v-202zM963.25 381.6c0-16.6-13.4-30-30-30h-202c-16.601 0-30 13.4-30 30v202c0 16.6 13.399 30 30 30h202.1c16.601 0 30-13.4 30-30v-202h-.1zM233.85 703.1h-202c-16.6 0-30 13.4-30 30v202.1c0 16.602 13.4 30 30 30h202.1c16.6 0 30-13.398 30-30V733.1c-.1-16.5-13.5-30-30.1-30zM583.55 703.1h-202c-16.6 0-30 13.4-30 30v202.1c0 16.602 13.4 30 30 30h202c16.6 0 30-13.398 30-30V733.1c0-16.5-13.401-30-30-30zM933.25 703.1h-202c-16.601 0-30 13.4-30 30v202.1c0 16.602 13.399 30 30 30h202.1c16.601 0 30-13.398 30-30V733.1c-.1-16.5-13.5-30-30.1-30z"/></svg><svg viewBox="0 0 19 17" id="like-icon" xmlns="http://www.w3.org/2000/svg"><path fill-rule="evenodd" fill="#243F4D" d="M9.913 16.244a.714.714 0 01-.28-.056C9.28 16.039.983 12.439.983 5.429 1.074 2.779 3.19.721 5.801.721c1.743 0 3.266.918 4.112 2.31a4.796 4.796 0 014.112-2.31c2.609 0 4.725 2.058 4.817 4.684 0 7.034-8.297 10.634-8.649 10.783a.718.718 0 01-.28.056zM5.801 2.106c-1.847 0-3.343 1.47-3.408 3.346 0 5.408 6.125 8.663 7.52 9.335 1.395-.672 7.52-3.93 7.52-9.358-.065-1.853-1.563-3.323-3.408-3.323s-3.342 1.47-3.408 3.346a.698.698 0 01-.704.669.7.7 0 01-.705-.669c-.064-1.876-1.561-3.346-3.407-3.346z"/></svg><svg viewBox="0 0 22 18" id="like-icon-prod" xmlns="http://www.w3.org/2000/svg"><defs><style>.kcls-1{fill:#a3bbc8;fill-rule:evenodd}</style></defs><path id="kForma_1" data-name="Forma 1" class="kcls-1" d="M882.99 1569.82a6.208 6.208 0 00-1.849-4.1A5.871 5.871 0 00877 1564c-2.311 0-3.948 1.78-4.827 2.74a2.156 2.156 0 01-.156.17l-.083-.09c-.8-.92-2.476-2.82-4.938-2.82a5.873 5.873 0 00-4.139 1.72 6.208 6.208 0 00-1.849 4.1 6.845 6.845 0 001.271 4.34 29.307 29.307 0 004.763 4.75c1.705 1.41 3.95 3.09 4.965 3.09 1.032 0 3.269-1.68 4.965-3.09a29.234 29.234 0 004.746-4.75 6.935 6.935 0 001.272-4.34zm-2.376 3.61a27 27 0 01-4.431 4.42c-2.406 2-3.831 2.79-4.172 2.82-.342-.03-1.77-.83-4.188-2.84a26.78 26.78 0 01-4.437-4.4 5.6 5.6 0 01-1.054-3.54 4.807 4.807 0 014.666-4.57c1.863 0 3.216 1.54 3.943 2.37a1.52 1.52 0 001.059.76 1.731 1.731 0 001.151-.81c.794-.87 2.122-2.32 3.851-2.32a4.807 4.807 0 014.666 4.57 5.528 5.528 0 01-1.054 3.54z" transform="translate(-861 -1564)"/></svg><svg viewBox="0 0 612 612" id="list" xmlns="http://www.w3.org/2000/svg"><path d="M63.311 73.862C28.342 73.862 0 102.204 0 137.172s28.342 63.311 63.311 63.311c34.968 0 63.31-28.342 63.31-63.311s-28.342-63.31-63.31-63.31zm0 168.827C28.342 242.689 0 271.032 0 306c0 34.969 28.342 63.311 63.311 63.311 34.968 0 63.31-28.342 63.31-63.311 0-34.968-28.342-63.311-63.31-63.311zm0 168.829C28.342 411.518 0 439.859 0 474.827c0 34.969 28.342 63.311 63.311 63.311 34.968 0 63.31-28.342 63.31-63.311 0-34.968-28.342-63.309-63.31-63.309zm168.827-232.139h337.655c23.319 0 42.207-18.888 42.207-42.207s-18.888-42.207-42.207-42.207H232.138c-23.319 0-42.207 18.888-42.207 42.207s18.888 42.207 42.207 42.207zm337.655 84.414H232.138c-23.319 0-42.207 18.888-42.207 42.207s18.888 42.207 42.207 42.207h337.655C593.112 348.207 612 329.319 612 306s-18.888-42.207-42.207-42.207zm0 168.828H232.138c-23.319 0-42.207 18.887-42.207 42.206s18.888 42.207 42.207 42.207h337.655c23.319 0 42.207-18.888 42.207-42.207s-18.888-42.206-42.207-42.206z"/></svg><svg fill="none" viewBox="0 0 21 16" id="mail" xmlns="http://www.w3.org/2000/svg"><path d="M1.005 4L8.91 9.26a2.006 2.006 0 002.224 0L19.038 4M3.009 15h14.025a2.005 2.005 0 002.004-2V3a1.998 1.998 0 00-2.004-2H3.01a2.005 2.005 0 00-2.004 2v10a1.998 1.998 0 002.004 2z"/></svg><svg viewBox="0 0 31 44" id="map" xmlns="http://www.w3.org/2000/svg"><defs><style>.ncls-1{fill:#a3bbc8;fill-rule:evenodd}</style></defs><path id="nicon" class="ncls-1" d="M543.6 660.809l-6.584-2.917-5.674 2.51a1.651 1.651 0 01-1.864-.355 1.634 1.634 0 01-.313-1.862l4.994-10.516a1.1 1.1 0 111.972.987l-4.343 9.144 4.32-1.914a2.227 2.227 0 011.806 0l6.583 2.916h.011l6.585-2.917a2.223 2.223 0 011.8 0l4.32 1.914-4.342-9.145a1.093 1.093 0 01.174-1.275 1.107 1.107 0 011.8.288l4.994 10.518a1.656 1.656 0 01-2.176 2.216L552 657.892l-6.594 2.917a2.23 2.23 0 01-1.806 0zm-1.947-7.6l-9.553-15.926c-.011-.02-.023-.041-.033-.062a13.944 13.944 0 1126.39-6.327 13.691 13.691 0 01-1.528 6.327l-.034.062-9.548 15.927a3.326 3.326 0 01-5.697 0zm2.683-34.012a11.783 11.783 0 00-11.586 11.625 11.521 11.521 0 001.269 5.366l9.529 15.9a1.114 1.114 0 001.91 0l9.528-15.9a11.665 11.665 0 00-2.231-13.625 11.7 11.7 0 00-8.247-3.368zm-4.884 11.7a5.051 5.051 0 115.051 5.027 5.044 5.044 0 01-5.054-5.03zm2.206 0a2.845 2.845 0 102.845-2.83 2.842 2.842 0 00-2.848 2.827z" transform="translate(-529 -617)"/></svg><svg viewBox="0 0 20.03 20.031" id="menu-icon" xmlns="http://www.w3.org/2000/svg"><path d="M2.15 4.287a2.146 2.146 0 112.14-2.145 2.145 2.145 0 01-2.14 2.145zm0 7.869a2.146 2.146 0 112.14-2.147 2.146 2.146 0 01-2.14 2.147zm0 7.868a2.146 2.146 0 112.14-2.146 2.145 2.145 0 01-2.14 2.146zm7.86-15.737a2.146 2.146 0 112.15-2.145 2.143 2.143 0 01-2.15 2.145zm0 7.869a2.146 2.146 0 112.15-2.147 2.144 2.144 0 01-2.15 2.147zm0 7.868a2.146 2.146 0 112.15-2.146 2.143 2.143 0 01-2.15 2.146zm7.87-15.737a2.146 2.146 0 112.15-2.145 2.143 2.143 0 01-2.15 2.145zm0 7.869a2.146 2.146 0 112.15-2.147 2.144 2.144 0 01-2.15 2.147zm0 7.868a2.146 2.146 0 112.15-2.146 2.143 2.143 0 01-2.15 2.146z"/></svg><svg viewBox="0 0 37 44" id="phone" xmlns="http://www.w3.org/2000/svg"><defs><style>.pcls-1{fill:#a3bbc8;fill-rule:evenodd}</style></defs><path id="picon" class="pcls-1" d="M1339.44 628.922a5.06 5.06 0 115.06 5 5.034 5.034 0 01-5.06-5zm1.97 0a3.085 3.085 0 103.09-3.045 3.074 3.074 0 00-3.09 3.045zm11.47-11.336a5.06 5.06 0 115.06 5 5.033 5.033 0 01-5.06-5zm1.98 0a3.085 3.085 0 103.08-3.046 3.066 3.066 0 00-3.08 3.046zm-15.42 0a5.06 5.06 0 115.06 5 5.033 5.033 0 01-5.06-5zm1.97 0a3.085 3.085 0 103.09-3.046 3.075 3.075 0 00-3.09 3.046zm-15.41 0a5.06 5.06 0 115.06 5 5.033 5.033 0 01-5.06-5zm1.97 0a3.085 3.085 0 103.09-3.046 3.075 3.075 0 00-3.09 3.046zm24.91-11.337a5.06 5.06 0 115.06 5 5.034 5.034 0 01-5.06-5zm1.98 0a3.085 3.085 0 103.08-3.045 3.064 3.064 0 00-3.08 3.045zm-15.42 0a5.06 5.06 0 115.06 5 5.034 5.034 0 01-5.06-5zm1.97 0a3.085 3.085 0 103.09-3.045 3.073 3.073 0 00-3.09 3.045zm-15.41 0a5.06 5.06 0 115.06 5 5.034 5.034 0 01-5.06-5zm1.97 0a3.085 3.085 0 103.09-3.045 3.073 3.073 0 00-3.09 3.045zm24.91-11.336a5.06 5.06 0 115.06 5 5.033 5.033 0 01-5.06-5zm1.98 0a3.085 3.085 0 103.08-3.046 3.066 3.066 0 00-3.08 3.046zm-15.42 0a5.06 5.06 0 115.06 5 5.033 5.033 0 01-5.06-5zm1.97 0a3.085 3.085 0 103.09-3.046 3.075 3.075 0 00-3.09 3.046zm-15.41 0a5.06 5.06 0 115.06 5 5.033 5.033 0 01-5.06-5zm1.97 0a3.085 3.085 0 103.09-3.046 3.075 3.075 0 00-3.09 3.046z" transform="translate(-1326 -589.906)"/></svg><svg viewBox="0 0 17.03 17" id="search" xmlns="http://www.w3.org/2000/svg"><defs><style>.qcls-1{fill:#094074;fill-rule:evenodd}</style></defs><path class="qcls-1" d="M16.44 17.014a.6.6 0 01-.42-.174l-5.3-5.3a6.515 6.515 0 11.84-.839l5.3 5.3a.6.6 0 010 .839.6.6 0 01-.42.174zM6.54 1.181a5.344 5.344 0 105.35 5.344 5.351 5.351 0 00-5.35-5.344z"/></svg><svg viewBox="0 0 15.28 15.281" id="search-icon" xmlns="http://www.w3.org/2000/svg"><defs><style>.rcls-1{fill:#243f4d;fill-rule:evenodd}</style></defs><path id="ricon" class="rcls-1" d="M1547.7 72.076a.617.617 0 01.75.485 2.583 2.583 0 00.78 1.489 3.036 3.036 0 001.49.777.636.636 0 01.49.743.649.649 0 01-.72.515 4.21 4.21 0 01-2.14-1.13 4.164 4.164 0 01-1.13-2.136.6.6 0 01.48-.743zm3.28-6.076a6.267 6.267 0 016.28 6.257 6.136 6.136 0 01-.57 2.6l2.34 2.036c1.7 1.746.74 3.266.29 3.717-.42.454-1.99 1.414-3.73-.292l-2.06-2.35A6.261 6.261 0 111550.98 66zm5.55 13.517a1.352 1.352 0 001.88.226 1.313 1.313 0 00-.23-1.874l-2.16-1.88a6.236 6.236 0 01-1.37 1.34zm-5.55-2.312a4.948 4.948 0 10-4.97-4.948 4.963 4.963 0 004.97 4.943z" transform="translate(-1544.72 -66)"/></svg><svg viewBox="0 0 47.94 47.94" id="star" xmlns="http://www.w3.org/2000/svg"><path d="M26.285 2.486l5.407 10.956a2.58 2.58 0 001.944 1.412l12.091 1.757c2.118.308 2.963 2.91 1.431 4.403l-8.749 8.528a2.582 2.582 0 00-.742 2.285l2.065 12.042c.362 2.109-1.852 3.717-3.746 2.722l-10.814-5.685a2.585 2.585 0 00-2.403 0l-10.814 5.685c-1.894.996-4.108-.613-3.746-2.722l2.065-12.042a2.582 2.582 0 00-.742-2.285L.783 21.014c-1.532-1.494-.687-4.096 1.431-4.403l12.091-1.757a2.58 2.58 0 001.944-1.412l5.407-10.956c.946-1.919 3.682-1.919 4.629 0z"/></svg><svg fill="none" viewBox="0 0 196 195" id="triangle" xmlns="http://www.w3.org/2000/svg"><path d="M51.748 60.14c-1.37-5.854 3.963-11.07 9.784-9.57l124.612 32.086c6.036 1.554 8.055 9.108 3.599 13.466l-95.295 93.206c-4.456 4.358-11.963 2.172-13.383-3.896L51.748 60.139z" fill="#0FAA80"/></svg><svg fill="none" viewBox="0 0 196 195" id="triangle_2" xmlns="http://www.w3.org/2000/svg"><path d="M51.748 60.14c-1.37-5.854 3.963-11.07 9.784-9.57l124.612 32.086c6.036 1.554 8.055 9.108 3.599 13.466l-95.295 93.206c-4.456 4.358-11.963 2.172-13.383-3.896L51.748 60.139z" fill="#F9F871"/></svg><svg viewBox="0 0 32 32" id="user" xmlns="http://www.w3.org/2000/svg"><path d="M4 4v24h24V4zm2 2h20v20h-2.063c-.343-2.703-2.054-4.988-4.406-6.156A6.006 6.006 0 0022 15c0-3.3-2.7-6-6-6s-6 2.7-6 6c0 1.984.977 3.75 2.469 4.844-2.352 1.168-4.063 3.453-4.406 6.156H6zm10 5c2.223 0 4 1.777 4 4s-1.777 4-4 4-4-1.777-4-4 1.777-4 4-4zm0 10a5.97 5.97 0 015.906 5H10.094A5.97 5.97 0 0116 21z"/></svg></svg>