<svg width="31" height="17" viewBox="0 0 31 17" fill="none" xmlns="http://www.w3.org/2000/svg">
<path d="M0.0416731 13.5413C0.0405516 13.2114 0.113367 12.8854 0.254762 12.5873C0.39616 12.2892 0.602546 12.0266 0.858758 11.8188L14.1088 1.15252C14.5039 0.82771 14.9995 0.650146 15.511 0.650146C16.0226 0.650146 16.5182 0.82771 16.9133 1.15252L30.1633 12.1942C30.6143 12.569 30.8979 13.1077 30.9518 13.6916C31.0056 14.2755 30.8253 14.857 30.4504 15.3079C30.0756 15.7589 29.5369 16.0425 28.953 16.0964C28.3691 16.1502 27.7877 15.9699 27.3367 15.595L15.5 5.72376L3.66334 15.2638C3.33919 15.5338 2.94447 15.7053 2.52588 15.7581C2.1073 15.8108 1.68236 15.7425 1.30136 15.5613C0.920364 15.3801 0.599246 15.0936 0.376006 14.7356C0.152765 14.3776 0.0367445 13.9631 0.0416731 13.5413Z" fill="white"/>
</svg>
