<svg width="21" height="16" viewBox="0 0 21 16" fill="none"
    xmlns="http://www.w3.org/2000/svg">
    <path d="M1.0054 4L8.90964 9.26C9.2389 9.47928 9.62584 9.5963 10.0216 9.5963C10.4175 9.5963 10.8044 9.47928 11.1336 9.26L19.0379 4M3.00901 15H17.0343C17.5657 15 18.0753 14.7893 18.451 14.4142C18.8268 14.0391 19.0379 13.5304 19.0379 13V3C19.0379 2.46957 18.8268 1.96086 18.451 1.58579C18.0753 1.21071 17.5657 1 17.0343 1H3.00901C2.47762 1 1.968 1.21071 1.59225 1.58579C1.2165 1.96086 1.0054 2.46957 1.0054 3V13C1.0054 13.5304 1.2165 14.0391 1.59225 14.4142C1.968 14.7893 2.47762 15 3.00901 15Z" stroke-width="2" stroke-linecap="round" stroke-linejoin="round"/>
</svg>
