<svg width="32" height="32" viewBox="0 0 32 32" fill="none" xmlns="http://www.w3.org/2000/svg">
<g clip-path="url(#clip0)">
<path fill-rule="evenodd" clip-rule="evenodd" d="M26.4958 10.4523C26.648 9.95175 26.4958 9.58325 25.7671 9.58325H23.3608C22.7485 9.58325 22.4662 9.90134 22.3131 10.2524C22.3131 10.2524 21.0893 13.1821 19.3559 15.0851C18.7949 15.6369 18.5401 15.812 18.2339 15.812C18.0808 15.812 17.8507 15.6369 17.8507 15.1355V10.4523C17.8507 9.85092 17.6821 9.58325 17.1724 9.58325H13.3884C13.0062 9.58325 12.7761 9.86192 12.7761 10.1268C12.7761 10.6961 13.6433 10.8281 13.7322 12.4304V15.9119C13.7322 16.6755 13.5919 16.8139 13.2857 16.8139C12.4699 16.8139 10.4853 13.8705 9.30742 10.5027C9.07917 9.84725 8.84817 9.58325 8.23308 9.58325H5.825C5.1375 9.58325 5 9.90134 5 10.2524C5 10.8776 5.81583 13.9833 8.79958 18.0908C10.7888 20.8958 13.5892 22.4166 16.1403 22.4166C17.6702 22.4166 17.859 22.0793 17.859 21.4972V19.3769C17.859 18.7013 18.0038 18.5666 18.4888 18.5666C18.8463 18.5666 19.4577 18.7426 20.8858 20.0947C22.5175 21.6979 22.7861 22.4166 23.7046 22.4166H26.1108C26.7983 22.4166 27.143 22.0793 26.945 21.4119C26.7268 20.7483 25.9477 19.7848 24.9146 18.6418C24.3536 17.9909 23.5121 17.2897 23.2563 16.9386C22.8998 16.4885 23.0015 16.2878 23.2563 15.8872C23.2563 15.8872 26.1897 11.83 26.4949 10.4523H26.4958Z" fill="#302B27"/>
</g>
<rect x="1.5" y="1.5" width="29" height="29" rx="7.5" stroke="#302B27" stroke-width="3"/>
<defs>
<clipPath id="clip0">
<rect width="22" height="22" fill="white" transform="translate(5 5)"/>
</clipPath>
</defs>
</svg>
